<svg id="Layer_1" data-name="Layer 1" xmlns="http://www.w3.org/2000/svg" xmlns:xlink="http://www.w3.org/1999/xlink" viewBox="0 0 534 156"><defs><style>.cls-1{fill:none;stroke:#fff;stroke-miterlimit:10;stroke-width:1.16px;}.cls-2{fill:#fff;}.cls-3{fill:#6dcff6;}.cls-4{fill:url(#radial-gradient);}.cls-5{fill:#c9252c;}</style><radialGradient id="radial-gradient" cx="73.18" cy="76.84" r="70.52" gradientUnits="userSpaceOnUse"><stop offset="0" stop-color="#6dcff6"/><stop offset="0.52" stop-color="#55b9de"/><stop offset="1" stop-color="#39a8cd"/></radialGradient></defs><title>logo-color-ko</title><line class="cls-1" x1="231.66" y1="75.66" x2="531.84" y2="75.66"/><line class="cls-1" x1="169.89" y1="75.66" x2="185.78" y2="75.66"/><path class="cls-2" d="M183.77,7.29c-.13-1-.58-1.42-1.48-1.42h-5.78A1.42,1.42,0,0,0,175,7.29l-6.68,43.52c-.13.9.32,1.61,1.22,1.61h2.7a1.35,1.35,0,0,0,1.41-1.29l1.29-8.81h8.93l1.35,8.81a1.31,1.31,0,0,0,1.35,1.29h2.7c.9,0,1.35-.65,1.23-1.61Zm-8.29,30.53,2.25-15,1.48-12.47h.32L181,22.84l2.18,15Zm34.33-15.55v9.19a1.23,1.23,0,0,1-1.36,1.35h-2.18a1.22,1.22,0,0,1-1.35-1.35V24.19c0-2.7-.77-3.6-2.89-3.6s-3.35,1.16-3.35,3.86V51.07a1.27,1.27,0,0,1-1.41,1.35h-2.12a1.28,1.28,0,0,1-1.42-1.35V18a1.24,1.24,0,0,1,1.42-1.35h2.12A1.24,1.24,0,0,1,198.68,18v.84a8.59,8.59,0,0,1,5.85-2.51C207.36,16.35,209.81,18.15,209.81,22.27Zm11.89-5.92c-6.24,0-8,2.7-8,7.65v2.83a1.24,1.24,0,0,0,1.42,1.35h2.12a1.24,1.24,0,0,0,1.41-1.35V24.07c0-2.77,1-3.6,3.09-3.6s3.15.83,3.15,3.6v8.29H221.7c-6.24,0-8,2.7-8,7.65v6.81c0,4.12,2.44,5.92,5.27,5.92a8.85,8.85,0,0,0,5.92-2.51v.84a1.22,1.22,0,0,0,1.35,1.35h2.18a1.22,1.22,0,0,0,1.35-1.35V24C229.67,19.05,227.93,16.35,221.7,16.35Zm3.15,28.29c0,2.7-1.22,3.79-3.41,3.79s-2.83-.83-2.83-3.6V40c0-2.7,1-3.6,3.09-3.6h3.15ZM251,24v5.08a1.19,1.19,0,0,1-1.35,1.35h-2.19a1.19,1.19,0,0,1-1.35-1.35v-5c0-2.77-1-3.6-3.15-3.6s-3.08.83-3.08,3.6V45c0,2.7,1,3.6,3.08,3.6s3.15-.9,3.15-3.6V40a1.24,1.24,0,0,1,1.35-1.42h2.19A1.24,1.24,0,0,1,251,40v5.08c0,4.95-1.8,7.65-8,7.65s-8-2.7-8-7.65V24c0-4.95,1.8-7.65,8-7.65S251,19.05,251,24Zm21.21-1.73v28.8a1.22,1.22,0,0,1-1.35,1.35h-2.18a1.23,1.23,0,0,1-1.36-1.35V24.19c0-2.7-.77-3.6-2.89-3.6S261,21.75,261,24.45V51.07a1.27,1.27,0,0,1-1.42,1.35H257.5a1.27,1.27,0,0,1-1.41-1.35V2.34A1.24,1.24,0,0,1,257.5,1h2.12A1.24,1.24,0,0,1,261,2.34V18.86a8.59,8.59,0,0,1,5.85-2.51C269.72,16.35,272.16,18.15,272.16,22.27Zm21.21,0v28.8A1.22,1.22,0,0,1,292,52.42h-2.18a1.22,1.22,0,0,1-1.35-1.35V24.19c0-2.7-.77-3.6-2.89-3.6s-3.35,1.16-3.35,3.86V51.07a1.27,1.27,0,0,1-1.41,1.35h-2.12a1.28,1.28,0,0,1-1.42-1.35V18a1.24,1.24,0,0,1,1.42-1.35h2.12A1.24,1.24,0,0,1,282.25,18v.84a8.59,8.59,0,0,1,5.85-2.51C290.93,16.35,293.37,18.15,293.37,22.27Zm13.18-5.92c-6.23,0-8,2.7-8,7.65V45.09c0,4.95,1.8,7.65,8,7.65s8-2.7,8-7.65V24C314.59,19.05,312.79,16.35,306.55,16.35ZM309.7,45c0,2.7-1,3.6-3.15,3.6s-3.08-.9-3.08-3.6v-21c0-2.77,1-3.6,3.08-3.6s3.15.83,3.15,3.6Zm15-42.68V51a1.29,1.29,0,0,1-1.42,1.42h-2.12A1.29,1.29,0,0,1,319.73,51V2.34A1.24,1.24,0,0,1,321.14,1h2.12A1.24,1.24,0,0,1,324.68,2.34Zm13.18,14c-6.24,0-8,2.7-8,7.65V45.09c0,4.95,1.8,7.65,8,7.65s8-2.7,8-7.65V24C345.89,19.05,344.09,16.35,337.86,16.35ZM341,45c0,2.7-1,3.6-3.15,3.6s-3.09-.9-3.09-3.6v-21c0-2.77,1-3.6,3.09-3.6s3.15.83,3.15,3.6Zm24.75-28.35h-2.19A1.19,1.19,0,0,0,362.22,18v.84a8.84,8.84,0,0,0-5.91-2.51c-2.83,0-5.27,1.8-5.27,5.92V46.82c0,4.12,2.44,5.92,5.27,5.92a8.84,8.84,0,0,0,5.91-2.51v6.69c0,2.7-.77,4.24-3.79,4.24h-3.15a1.29,1.29,0,0,0-1.42,1.41v1.35a1.24,1.24,0,0,0,1.42,1.35h3.15c6.75,0,8.68-2.95,8.68-8.29V18A1.19,1.19,0,0,0,365.76,16.67Zm-3.54,28c0,2.7-1.22,3.79-3.4,3.79S356,47.6,356,44.83V24.19c0-2.7.7-3.6,2.83-3.6s3.4,1.16,3.4,3.86Zm25.52-26.3L380.8,63.92a1.34,1.34,0,0,1-1.54,1.35H377.2c-.9,0-1.48-.51-1.29-1.67l1.87-11.18h-1.09a1.46,1.46,0,0,1-1.61-1.35l-5-32.73c-.19-1.15.45-1.67,1.29-1.67h2.06c1,0,1.41.39,1.54,1.35l2.57,18.07,1.22,11.25h.32l1.23-11.25L382.79,18c.13-1,.58-1.35,1.61-1.35h2.06C387.36,16.67,387.94,17.19,387.74,18.34Zm26-.32a1.38,1.38,0,0,0-1.55-1.35h-4.62A1.38,1.38,0,0,0,406.06,18L401,50.75c-.19,1.15.45,1.67,1.29,1.67h2.06a1.4,1.4,0,0,0,1.6-1.42l.84-6.43H413l.9,6.43a1.4,1.4,0,0,0,1.6,1.42h2.06c.84,0,1.41-.52,1.22-1.67Zm-6.43,22.44L408.44,33l1.29-11.31h.38L411.4,33l1.09,7.46ZM434.73,18v1.35a1.29,1.29,0,0,1-1.41,1.42h-5.14V51a1.24,1.24,0,0,1-1.35,1.42h-2.19A1.24,1.24,0,0,1,423.29,51V20.79h-5.14a1.29,1.29,0,0,1-1.42-1.42V18a1.24,1.24,0,0,1,1.42-1.35h15.17A1.24,1.24,0,0,1,434.73,18Zm25.65,0a1.36,1.36,0,0,0-1.54-1.35h-4.63A1.37,1.37,0,0,0,452.67,18l-5.08,32.73c-.19,1.15.45,1.67,1.29,1.67h2.05A1.41,1.41,0,0,0,452.54,51l.84-6.43h6.23l.9,6.43a1.41,1.41,0,0,0,1.61,1.42h2.06c.83,0,1.41-.52,1.22-1.67ZM454,40.46,455.05,33l1.28-11.31h.39L458,33l1.09,7.46ZM489.38,18V51A1.29,1.29,0,0,1,488,52.42h-1.8A1.26,1.26,0,0,1,484.75,51V31.46l.51-7.2h-.38L482,44.64a1.41,1.41,0,0,1-1.6,1.28h-3a1.36,1.36,0,0,1-1.54-1.28l-3-20.38h-.32l.45,7.2V51c0,.9-.39,1.42-1.35,1.42h-1.8A1.29,1.29,0,0,1,468.48,51V18a1.24,1.24,0,0,1,1.42-1.35h4.18a1.25,1.25,0,0,1,1.35,1.22l2.25,13.5,1.09,8.68h.32l1.16-8.68,2.18-13.5a1.22,1.22,0,0,1,1.35-1.22H488A1.24,1.24,0,0,1,489.38,18Zm21.4,0V51a1.29,1.29,0,0,1-1.41,1.42h-2.7c-.9,0-1.22-.39-1.48-1.22l-4.11-15.63-2.19-8.93h-.39l.78,9.25V51a1.24,1.24,0,0,1-1.35,1.42h-2A1.29,1.29,0,0,1,494.52,51V18a1.24,1.24,0,0,1,1.41-1.35h2.7c.84,0,1.22.39,1.48,1.22l4.12,15.56,2.18,9,.39-.06-.77-9.2V18a1.19,1.19,0,0,1,1.35-1.35h2A1.24,1.24,0,0,1,510.78,18ZM532,18V51a1.24,1.24,0,0,1-1.35,1.42h-2.19A1.24,1.24,0,0,1,527.11,51V36.54h-6.23V51a1.29,1.29,0,0,1-1.42,1.42h-2.12A1.29,1.29,0,0,1,515.93,51V18a1.24,1.24,0,0,1,1.41-1.35h2.12A1.24,1.24,0,0,1,520.88,18v14.4h6.23V18a1.19,1.19,0,0,1,1.35-1.35h2.19A1.19,1.19,0,0,1,532,18Z"/><path class="cls-3" d="M172.51,108.31a8.46,8.46,0,0,0,6.32,2.86c3.59,0,4.73-1.92,4.73-3.46,0-2.41-2.44-3.07-5.09-3.8-3.22-.84-6.81-1.74-6.81-5.69,0-3.31,3-5.57,6.9-5.57a9.45,9.45,0,0,1,7.14,2.8l-1.51,1.84a7.66,7.66,0,0,0-5.81-2.41c-2.41,0-4.13,1.29-4.13,3.19s2.32,2.62,4.88,3.31c3.29.88,7,1.9,7,6.12,0,2.92-2,5.9-7.41,5.9a10,10,0,0,1-7.71-3.19Z"/><path class="cls-3" d="M196.21,98.13a6.25,6.25,0,0,1,5.33,2.53L200,102.05a4.3,4.3,0,0,0-3.7-1.9c-3.1,0-5,2.38-5,5.6s1.93,5.63,5,5.63a4.39,4.39,0,0,0,3.7-1.89l1.51,1.38a6.22,6.22,0,0,1-5.33,2.53c-4.34,0-7.26-3.31-7.26-7.65S191.87,98.13,196.21,98.13Z"/><path class="cls-3" d="M203.85,105.75c0-4.22,2.78-7.62,7.2-7.62s7.2,3.4,7.2,7.62-2.77,7.65-7.2,7.65S203.85,110,203.85,105.75Zm12,0c0-3-1.71-5.6-4.82-5.6s-4.85,2.65-4.85,5.6,1.75,5.63,4.85,5.63S215.87,108.73,215.87,105.75Z"/><path class="cls-3" d="M221.92,98.49h2.26v2.35A6.18,6.18,0,0,1,229,98.19v2.32a4,4,0,0,0-.9-.09,5.3,5.3,0,0,0-3.95,2.32V113h-2.26Z"/><path class="cls-3" d="M231.86,118.58V98.49h2.26v2.17A6.06,6.06,0,0,1,239,98.13c3.82,0,6.47,2.89,6.47,7.62s-2.65,7.65-6.47,7.65a5.94,5.94,0,0,1-4.91-2.56v7.74Zm6.6-18.43a5.36,5.36,0,0,0-4.34,2.32V109a5.39,5.39,0,0,0,4.34,2.35c2.92,0,4.67-2.41,4.67-5.63S241.38,100.15,238.46,100.15Z"/><path class="cls-3" d="M248.75,94.52a1.53,1.53,0,0,1,3.05,0,1.53,1.53,0,1,1-3.05,0Zm.4,4h2.25V113h-2.25Z"/><path class="cls-3" d="M255.08,105.75c0-4.22,2.77-7.62,7.2-7.62s7.19,3.4,7.19,7.62-2.77,7.65-7.19,7.65S255.08,110,255.08,105.75Zm12,0c0-3-1.72-5.6-4.82-5.6s-4.85,2.65-4.85,5.6,1.74,5.63,4.85,5.63S267.1,108.73,267.1,105.75Z"/><path class="cls-3" d="M283,103.52c0-2.56-1.29-3.37-3.25-3.37a5.61,5.61,0,0,0-4.31,2.26V113h-2.25V98.49h2.25v2.11a7.26,7.26,0,0,1,5.18-2.47c3.05,0,4.64,1.54,4.64,4.7V113H283Z"/><path class="cls-3" d="M297.87,108.31a8.46,8.46,0,0,0,6.32,2.86c3.59,0,4.73-1.92,4.73-3.46,0-2.41-2.44-3.07-5.09-3.8-3.22-.84-6.81-1.74-6.81-5.69,0-3.31,3-5.57,6.9-5.57a9.43,9.43,0,0,1,7.14,2.8l-1.5,1.84a7.69,7.69,0,0,0-5.82-2.41c-2.41,0-4.13,1.29-4.13,3.19s2.32,2.62,4.88,3.31c3.29.88,7,1.9,7,6.12,0,2.92-2,5.9-7.41,5.9a10,10,0,0,1-7.71-3.19Z"/><path class="cls-3" d="M315.76,116.93a2.09,2.09,0,0,0,2.16-1.54l1-2.2-6.09-14.7h2.44l4.85,11.93,4.82-11.93h2.47L320.09,116a4.32,4.32,0,0,1-4.27,3,7.32,7.32,0,0,1-1.66-.21l.36-2A3.27,3.27,0,0,0,315.76,116.93Z"/><path class="cls-3" d="M329.64,109.49a6.59,6.59,0,0,0,4.79,2.07c2.23,0,3.43-1,3.43-2.41,0-1.59-1.78-2.1-3.74-2.59-2.46-.57-5.27-1.23-5.27-4.24,0-2.26,2-4.19,5.43-4.19a7.35,7.35,0,0,1,5.39,2.11l-1.06,1.56a5.67,5.67,0,0,0-4.33-1.83c-2,0-3.23.9-3.23,2.2s1.66,1.86,3.56,2.32c2.53.57,5.45,1.29,5.45,4.51,0,2.44-2,4.4-5.72,4.4a7.75,7.75,0,0,1-5.88-2.29Z"/><path class="cls-3" d="M344.18,110v-9.52h-2.41v-2h2.41v-4h2.26v4h2.95v2h-2.95v9c0,1.08.48,1.86,1.48,1.86a2.17,2.17,0,0,0,1.53-.6l.67,1.69a3.72,3.72,0,0,1-2.71.93C345.27,113.4,344.18,112.17,344.18,110Z"/><path class="cls-3" d="M358.91,98.13c4.4,0,7,3.43,7,7.8v.57H354.12a5.12,5.12,0,0,0,5.24,5,6.36,6.36,0,0,0,4.49-1.83l1.08,1.47a7.87,7.87,0,0,1-5.78,2.23c-4.31,0-7.41-3.1-7.41-7.65C351.74,101.53,354.75,98.13,358.91,98.13Zm-4.79,6.72h9.55a4.72,4.72,0,0,0-4.79-4.85A4.86,4.86,0,0,0,354.12,104.85Z"/><path class="cls-3" d="M387.1,103.16c0-1.84-.82-3-2.68-3a5.07,5.07,0,0,0-3.86,2.23V113H378.3v-9.88c0-1.84-.78-3-2.68-3a5.06,5.06,0,0,0-3.82,2.26V113h-2.26V98.49h2.26v2.11a6.3,6.3,0,0,1,4.7-2.47,3.74,3.74,0,0,1,3.91,2.71,6.13,6.13,0,0,1,4.88-2.71c2.65,0,4.07,1.48,4.07,4.4V113H387.1Z"/><path class="cls-3" d="M403,111.38a6.3,6.3,0,0,1-4.82,2,4.84,4.84,0,0,1-5.09-4.82c0-3.25,2.62-4.79,5.09-4.79a6.12,6.12,0,0,1,4.82,2v-2.62c0-2-1.57-3.07-3.68-3.07a5.77,5.77,0,0,0-4.46,2l-1.05-1.57a7.6,7.6,0,0,1,5.81-2.41c3.08,0,5.63,1.39,5.63,4.91v10H403Zm0-4.15a4.87,4.87,0,0,0-4-1.81c-2.11,0-3.58,1.33-3.58,3.19s1.47,3.17,3.58,3.17a4.9,4.9,0,0,0,4-1.81Z"/><path class="cls-3" d="M410.19,110v-9.52h-2.41v-2h2.41v-4h2.26v4h2.95v2h-2.95v9c0,1.08.48,1.86,1.48,1.86a2.17,2.17,0,0,0,1.53-.6l.66,1.69a3.69,3.69,0,0,1-2.71.93C411.27,113.4,410.19,112.17,410.19,110Z"/><path class="cls-3" d="M418.2,94.52a1.52,1.52,0,0,1,3,0,1.52,1.52,0,1,1-3,0Zm.39,4h2.26V113h-2.26Z"/><path class="cls-3" d="M431.78,98.13a6.23,6.23,0,0,1,5.33,2.53l-1.5,1.39a4.32,4.32,0,0,0-3.71-1.9c-3.1,0-5,2.38-5,5.6s1.93,5.63,5,5.63a4.4,4.4,0,0,0,3.71-1.89l1.5,1.38a6.21,6.21,0,0,1-5.33,2.53c-4.33,0-7.26-3.31-7.26-7.65S427.45,98.13,431.78,98.13Z"/><path class="cls-3" d="M440.18,109.49a6.61,6.61,0,0,0,4.79,2.07c2.23,0,3.44-1,3.44-2.41,0-1.59-1.78-2.1-3.74-2.59-2.47-.57-5.27-1.23-5.27-4.24,0-2.26,2-4.19,5.42-4.19a7.33,7.33,0,0,1,5.39,2.11l-1,1.56a5.67,5.67,0,0,0-4.34-1.83c-2,0-3.22.9-3.22,2.2s1.66,1.86,3.55,2.32c2.53.57,5.46,1.29,5.46,4.51,0,2.44-2,4.4-5.73,4.4a7.71,7.71,0,0,1-5.87-2.29Z"/><path class="cls-3" d="M178.74,139.23h-4v8h-2.5V127.13h8.07c3.67,0,6.29,2.35,6.29,6.05a5.54,5.54,0,0,1-5.21,5.84l5.42,8.2h-2.95Zm1.27-9.87h-5.27V137H180a3.84,3.84,0,1,0,0-7.68Z"/><path class="cls-3" d="M195.88,132.31c4.39,0,7,3.43,7,7.8v.57H191.09a5.13,5.13,0,0,0,5.24,5,6.36,6.36,0,0,0,4.49-1.84l1.08,1.48a7.89,7.89,0,0,1-5.78,2.23c-4.31,0-7.41-3.1-7.41-7.65C188.71,135.71,191.72,132.31,195.88,132.31ZM191.09,139h9.55a4.72,4.72,0,0,0-4.79-4.84A4.85,4.85,0,0,0,191.09,139Z"/><path class="cls-3" d="M206.41,143.66a6.6,6.6,0,0,0,4.79,2.08c2.23,0,3.44-1,3.44-2.41,0-1.6-1.78-2.11-3.74-2.59-2.47-.57-5.27-1.23-5.27-4.25,0-2.26,2-4.18,5.42-4.18a7.33,7.33,0,0,1,5.39,2.11L215.39,136a5.68,5.68,0,0,0-4.34-1.84c-2,0-3.22.91-3.22,2.2s1.66,1.87,3.55,2.32c2.53.57,5.46,1.3,5.46,4.52,0,2.44-2,4.4-5.73,4.4a7.72,7.72,0,0,1-5.87-2.29Z"/><path class="cls-3" d="M226.83,132.31c4.4,0,7,3.43,7,7.8v.57H222a5.13,5.13,0,0,0,5.24,5,6.33,6.33,0,0,0,4.49-1.84l1.09,1.48a7.91,7.91,0,0,1-5.79,2.23c-4.3,0-7.41-3.1-7.41-7.65C219.66,135.71,222.68,132.31,226.83,132.31ZM222,139h9.55a4.71,4.71,0,0,0-4.79-4.84A4.85,4.85,0,0,0,222,139Z"/><path class="cls-3" d="M246.56,145.56a6.28,6.28,0,0,1-4.82,2,4.85,4.85,0,0,1-5.09-4.82c0-3.25,2.62-4.79,5.09-4.79a6.08,6.08,0,0,1,4.82,2v-2.62c0-2-1.57-3.08-3.68-3.08a5.79,5.79,0,0,0-4.45,2l-1.06-1.56a7.6,7.6,0,0,1,5.81-2.41c3.08,0,5.64,1.38,5.64,4.91v10h-2.26Zm0-4.16a4.89,4.89,0,0,0-4-1.8c-2.11,0-3.58,1.32-3.58,3.19s1.47,3.16,3.58,3.16a4.87,4.87,0,0,0,4-1.81Z"/><path class="cls-3" d="M253.33,132.67h2.26V135a6.16,6.16,0,0,1,4.85-2.65v2.32a4,4,0,0,0-.9-.09,5.3,5.3,0,0,0-4,2.32v10.3h-2.26Z"/><path class="cls-3" d="M269.68,132.31a6.24,6.24,0,0,1,5.34,2.53l-1.51,1.38a4.33,4.33,0,0,0-3.71-1.89c-3.1,0-5,2.38-5,5.6s1.93,5.63,5,5.63a4.39,4.39,0,0,0,3.71-1.9l1.51,1.39a6.27,6.27,0,0,1-5.34,2.53c-4.33,0-7.26-3.32-7.26-7.65S265.35,132.31,269.68,132.31Z"/><path class="cls-3" d="M288,137.64c0-2.56-1.32-3.31-3.28-3.31a5.74,5.74,0,0,0-4.31,2.25v10.64h-2.26V127.13h2.26v7.65a7.24,7.24,0,0,1,5.21-2.47c3.05,0,4.64,1.47,4.64,4.64v10.27H288Z"/><path class="cls-3" d="M312.17,126.8a9.58,9.58,0,0,1,7.81,3.76l-2,1.24a7.43,7.43,0,0,0-5.82-2.78c-4.39,0-7.74,3.38-7.74,8.17s3.35,8.19,7.74,8.19a7.93,7.93,0,0,0,5.4-2.17v-4.1h-6.9v-2.22h9.4v7.25a10.47,10.47,0,0,1-7.9,3.47,10.41,10.41,0,0,1,0-20.81Z"/><path class="cls-3" d="M324,132.67h2.26V135a6.16,6.16,0,0,1,4.85-2.65v2.32a4.06,4.06,0,0,0-.91-.09,5.3,5.3,0,0,0-3.94,2.32v10.3H324Z"/><path class="cls-3" d="M333.13,139.93c0-4.22,2.77-7.62,7.2-7.62s7.2,3.4,7.2,7.62-2.77,7.65-7.2,7.65S333.13,144.14,333.13,139.93Zm12,0c0-3-1.72-5.6-4.82-5.6s-4.85,2.65-4.85,5.6,1.75,5.63,4.85,5.63S345.15,142.91,345.15,139.93Z"/><path class="cls-3" d="M361,145.17a7.14,7.14,0,0,1-5.18,2.41c-3,0-4.64-1.48-4.64-4.64V132.67h2.26v9.58c0,2.56,1.29,3.31,3.25,3.31a5.55,5.55,0,0,0,4.31-2.2V132.67h2.26v14.55H361Z"/><path class="cls-3" d="M367.79,152.76V132.67h2.26v2.17a6.08,6.08,0,0,1,4.91-2.53c3.83,0,6.48,2.89,6.48,7.62s-2.65,7.65-6.48,7.65a6,6,0,0,1-4.91-2.56v7.74Zm6.6-18.43a5.38,5.38,0,0,0-4.34,2.31v6.57a5.39,5.39,0,0,0,4.34,2.35c2.92,0,4.67-2.41,4.67-5.63S377.31,134.33,374.39,134.33Z"/><path class="cls-3" d="M192.38,70.45H188V68.66h10.91v1.79h-4.45V83h-2Z"/><path class="cls-3" d="M212.11,76.52h-8.57V83h-2V68.66h2v6.06h8.57V68.66h2V83h-2Z"/><path class="cls-3" d="M218.05,68.66H228v1.79h-7.91v4.3h7.78v1.8h-7.78v4.63H228V83h-9.94Z"/><path class="cls-4" d="M81,63.91l-8.41-3.36.57,2.37-7-2.08L65,56.07a3.16,3.16,0,0,1,4.25-3.68L85.74,59ZM54.83,71.43l7.21.72-1.5-3.5L72.26,72c2-1.61,3.84-3.3,5.61-5-7.05-2-15.44-4.44-21.82-6.29A3.17,3.17,0,0,0,52.22,65ZM32.93,104a18.18,18.18,0,0,0,.39-5.73l8.52-4.47a18.51,18.51,0,0,1,5-7.23l-2.41-1.34a4.12,4.12,0,0,0-3.89,0l-11.26,5.9a5.84,5.84,0,0,0-.53-.33c-5.22-2.47-13.06.73-19.36,7.74-5.36,6-8.19,13-7.57,18.69a1,1,0,0,0,.71.86,1,1,0,0,0,1.08-.29C6.82,114.2,15.89,105,19.81,105a1.05,1.05,0,0,1,.86.33,1.13,1.13,0,0,1,.27,1c-.39,4.08-10.78,12.6-14.75,15.55a1,1,0,0,0,.61,1.85C21.69,123.66,30.72,113.78,32.93,104ZM50.67,83.81A31.75,31.75,0,0,1,56,81.33a52.39,52.39,0,0,0,11.41-5.79l-15.89-.75a3.12,3.12,0,0,0-2.82,1.47,3.16,3.16,0,0,0-.13,3.17Zm93.82,21.09-4.75-21.59a3.08,3.08,0,0,0-2.71-2.4L117.1,79c1.91-6.72,2-15.9-.46-25.19a6.08,6.08,0,0,0,.74-7.46,22.22,22.22,0,0,0,1-6.45l.08-6.34c.06-5.44-1.65-10.13-4.13-12.1-.33-2.5-2.23-5.34-5.28-7.4l-3.94-2.67c-3.77-2.55-8-3-10.4-1.48C93.28,8.06,90.43,7,87.24,7.24l-3.84.35C80,7.89,77.23,9.71,76.33,12a6.39,6.39,0,0,0-1.16,0,6,6,0,0,0-5.52,6.5A5.54,5.54,0,0,0,70,20c-2.39.06-5.54,1.12-7.54,5.65a11,11,0,0,0,1,10.57c5.77,9.34,23.36,12.33,24.11,12.39a1,1,0,0,0,1-.74A1,1,0,0,0,88,46.65c-.07,0-7.18-3.23-7.21-9.16a10.78,10.78,0,0,0,1.93-3c2-4.51-.36-8.64-4-11.37a6,6,0,0,0,3-4.52,30.35,30.35,0,0,0,6.59-.23,10.54,10.54,0,0,0,5.29-2,13.36,13.36,0,0,0,4.63,5.22l4,2.66a14.48,14.48,0,0,0,3.83,1.85,21.73,21.73,0,0,0-1.26,7.26l-.08,6.33a24.42,24.42,0,0,0,.2,3.37,8.2,8.2,0,0,0-2.46,3.33,8.66,8.66,0,0,0-.41,4.51C89.7,56.31,80.68,76.85,57.39,85.19c-8.75,3.14-11.31,8-12.25,11.66a6.65,6.65,0,0,0-1.36,4.62,7.06,7.06,0,0,0,.79,2.82,11.2,11.2,0,0,0,0,5.17,1,1,0,0,0,1,.78,1.06,1.06,0,0,0,1-1,5.32,5.32,0,0,1,.72-2.43,5.35,5.35,0,0,0,1.85.3,4,4,0,0,0,2.5-1.09c.51.29,1.06.59,1.65.88a5.46,5.46,0,0,0-.11,3.47,6.64,6.64,0,0,1-3.78,1.39,1,1,0,0,0-.95.94,1,1,0,0,0,.77,1.08,14.56,14.56,0,0,0,3.28.37,9,9,0,0,0,4.3-.94,7.15,7.15,0,0,0,1.4.14,8.65,8.65,0,0,0,3.85-1,8.8,8.8,0,0,0,2.53-1.9q1.48.24,3.09.39v13L54.8,128.32c-4.21-4.76-12.77-7.49-20.74-7.49-6.32,0-11.77,1.65-15.36,4.64a1,1,0,0,0-.33,1.07,1,1,0,0,0,.85.73c4.94.7,18.27,3.25,20.59,6.68a1.17,1.17,0,0,1,.23,1c-.28,1.13-2.24,1.37-3.84,1.37-6.85,0-19-4.32-19.07-4.37a1,1,0,0,0-1.16.33,1,1,0,0,0,0,1.2c7.47,11.31,17.71,13,23.16,13,6.58,0,12.73-2.38,16-6.21a9.24,9.24,0,0,0,2.09-4.09l15.87-5.38a4.1,4.1,0,0,0,2.79-3.89V110.85a55.74,55.74,0,0,0,12.46-3.37l7.23,8.73L85.28,127.4a3.08,3.08,0,1,0,4.53,4.17l12.11-13.16a3.09,3.09,0,0,0,.1-4l-7.86-9.51c1.39-.71,2.78-1.5,4.15-2.35l13.21,10.61-9,18.67a3.07,3.07,0,0,0,1.44,4.1,3,3,0,0,0,1.33.3,3.08,3.08,0,0,0,2.78-1.74l10-20.87a3.1,3.1,0,0,0-.85-3.73l-13.76-11a45.69,45.69,0,0,0,3.54-3.16l18.47,7.13-3.4,22.16a3,3,0,0,0,3.05,3.54,3.07,3.07,0,0,0,3-2.61l3.77-24.6a3.06,3.06,0,0,0-1.93-3.34l-18.7-7.22a36.93,36.93,0,0,0,3.47-5.77l19.39,1.9,4.27,19.41a3.08,3.08,0,0,0,6-1.33Z"/><path class="cls-5" d="M88.53,47.88A1,1,0,0,0,88,46.65a17.06,17.06,0,0,1-3.54-2.3,2.79,2.79,0,0,0-1,1.49,3.85,3.85,0,0,0,.06,1.94,39.92,39.92,0,0,0,4,.84A1,1,0,0,0,88.53,47.88Z"/></svg>