<svg id="Layer_1" data-name="Layer 1" xmlns="http://www.w3.org/2000/svg" viewBox="0 0 534 156"><defs><style>.cls-1{fill:#011520;}</style></defs><title>logo-k-no-tagline</title><path class="cls-1" d="M134,51.33c-.14-1.1-.66-1.62-1.69-1.62h-6.61a1.63,1.63,0,0,0-1.76,1.62l-7.64,49.72c-.14,1,.37,1.83,1.4,1.83h3.08a1.55,1.55,0,0,0,1.62-1.47l1.47-10.06h10.21l1.54,10.06a1.48,1.48,0,0,0,1.54,1.47h3.08c1,0,1.55-.73,1.4-1.83ZM124.5,86.21l2.57-17.11,1.69-14.25h.37l1.68,14.25,2.5,17.11Zm39.21-17.77v10.5a1.39,1.39,0,0,1-1.54,1.54h-2.5a1.39,1.39,0,0,1-1.54-1.54v-8.3c0-3.08-.88-4.11-3.3-4.11S151,67.85,151,70.94v30.4a1.45,1.45,0,0,1-1.62,1.54H147a1.45,1.45,0,0,1-1.62-1.54V63.59A1.42,1.42,0,0,1,147,62.05h2.42A1.42,1.42,0,0,1,151,63.59v1a9.77,9.77,0,0,1,6.68-2.87C160.92,61.68,163.71,63.74,163.71,68.44Zm13.59-6.76c-7.13,0-9.18,3.09-9.18,8.74v3.23a1.42,1.42,0,0,0,1.61,1.55h2.43a1.42,1.42,0,0,0,1.61-1.55V70.5c0-3.16,1.1-4.12,3.53-4.12s3.6,1,3.6,4.12V80h-3.6c-7.13,0-9.18,3.08-9.18,8.74v7.78c0,4.7,2.79,6.76,6,6.76a10.11,10.11,0,0,0,6.76-2.87v1a1.39,1.39,0,0,0,1.54,1.54h2.5a1.4,1.4,0,0,0,1.54-1.54V70.42C186.4,64.77,184.42,61.68,177.3,61.68ZM180.9,94c0,3.08-1.4,4.33-3.9,4.33s-3.23-1-3.23-4.11V88.71c0-3.09,1.1-4.11,3.53-4.11h3.6Zm29.81-23.58v5.8a1.37,1.37,0,0,1-1.54,1.55h-2.5a1.37,1.37,0,0,1-1.54-1.55V70.5c0-3.16-1.1-4.12-3.6-4.12s-3.52,1-3.52,4.12V94.44c0,3.08,1.1,4.11,3.52,4.11s3.6-1,3.6-4.11V88.71a1.42,1.42,0,0,1,1.54-1.62h2.5a1.42,1.42,0,0,1,1.54,1.62v5.8c0,5.65-2.06,8.74-9.18,8.74s-9.18-3.09-9.18-8.74V70.42c0-5.65,2.06-8.74,9.18-8.74S210.71,64.77,210.71,70.42Zm24.23-2v32.9a1.39,1.39,0,0,1-1.54,1.54h-2.5a1.4,1.4,0,0,1-1.54-1.54V70.64c0-3.08-.88-4.11-3.3-4.11s-3.82,1.32-3.82,4.41v30.4a1.45,1.45,0,0,1-1.62,1.54H218.2a1.45,1.45,0,0,1-1.62-1.54V45.67a1.42,1.42,0,0,1,1.62-1.54h2.42a1.42,1.42,0,0,1,1.62,1.54V64.55a9.77,9.77,0,0,1,6.68-2.87C232.15,61.68,234.94,63.74,234.94,68.44Zm24.24,0v32.9a1.4,1.4,0,0,1-1.55,1.54h-2.49a1.4,1.4,0,0,1-1.55-1.54V70.64c0-3.08-.88-4.11-3.3-4.11s-3.82,1.32-3.82,4.41v30.4a1.45,1.45,0,0,1-1.61,1.54h-2.43a1.44,1.44,0,0,1-1.61-1.54V63.59a1.41,1.41,0,0,1,1.61-1.54h2.43a1.41,1.41,0,0,1,1.61,1.54v1a9.81,9.81,0,0,1,6.68-2.87C256.38,61.68,259.18,63.74,259.18,68.44Zm15.05-6.76c-7.12,0-9.18,3.09-9.18,8.74V94.51c0,5.65,2.06,8.74,9.18,8.74s9.18-3.09,9.18-8.74V70.42C283.41,64.77,281.35,61.68,274.23,61.68Zm3.6,32.76c0,3.08-1.1,4.11-3.6,4.11s-3.53-1-3.53-4.11V70.5c0-3.16,1.11-4.12,3.53-4.12s3.6,1,3.6,4.12Zm17.11-48.77v55.6a1.47,1.47,0,0,1-1.62,1.61H290.9a1.47,1.47,0,0,1-1.62-1.61V45.67a1.42,1.42,0,0,1,1.62-1.54h2.42A1.42,1.42,0,0,1,294.94,45.67Zm15.05,16c-7.12,0-9.18,3.09-9.18,8.74V94.51c0,5.65,2.06,8.74,9.18,8.74s9.18-3.09,9.18-8.74V70.42C319.17,64.77,317.11,61.68,310,61.68Zm3.6,32.76c0,3.08-1.1,4.11-3.6,4.11s-3.53-1-3.53-4.11V70.5c0-3.16,1.11-4.12,3.53-4.12s3.6,1,3.6,4.12Zm28.27-32.39h-2.5a1.36,1.36,0,0,0-1.54,1.54v1a10.11,10.11,0,0,0-6.75-2.87c-3.24,0-6,2.06-6,6.76V96.49c0,4.7,2.79,6.76,6,6.76a10.11,10.11,0,0,0,6.75-2.87V108c0,3.09-.88,4.85-4.33,4.85h-3.6a1.47,1.47,0,0,0-1.62,1.61V116a1.42,1.42,0,0,0,1.62,1.54h3.6c7.71,0,9.91-3.38,9.91-9.47V63.59A1.36,1.36,0,0,0,341.86,62.05Zm-4,32c0,3.08-1.39,4.33-3.89,4.33s-3.23-1-3.23-4.11V70.64c0-3.08.81-4.11,3.23-4.11s3.89,1.32,3.89,4.41ZM367,64,359,116a1.53,1.53,0,0,1-1.76,1.54h-2.35c-1,0-1.69-.59-1.47-1.91l2.13-12.78h-1.25a1.66,1.66,0,0,1-1.83-1.54L346.78,64c-.22-1.32.51-1.91,1.47-1.91h2.35c1.17,0,1.61.44,1.76,1.54l2.94,20.64,1.39,12.85h.37l1.4-12.85,2.86-20.64c.15-1.1.66-1.54,1.84-1.54h2.35C366.53,62.05,367.19,62.64,367,64Zm29.73-.37A1.56,1.56,0,0,0,395,62.05h-5.29a1.56,1.56,0,0,0-1.76,1.54L382.1,101c-.22,1.32.51,1.91,1.47,1.91h2.35a1.6,1.6,0,0,0,1.83-1.61l1-7.35h7.12l1,7.35a1.61,1.61,0,0,0,1.84,1.61h2.35c.95,0,1.61-.59,1.39-1.91Zm-7.34,25.63,1.25-8.52,1.47-12.92h.44L394,80.7l1.25,8.52Zm31.28-25.63v1.54A1.47,1.47,0,0,1,419,66.75h-5.88v34.52a1.41,1.41,0,0,1-1.54,1.61h-2.5a1.42,1.42,0,0,1-1.54-1.61V66.75h-5.87a1.47,1.47,0,0,1-1.62-1.62V63.59a1.42,1.42,0,0,1,1.62-1.54H419A1.41,1.41,0,0,1,420.65,63.59Zm29.3,0a1.56,1.56,0,0,0-1.76-1.54H442.9a1.56,1.56,0,0,0-1.76,1.54L435.34,101c-.22,1.32.51,1.91,1.47,1.91h2.35a1.6,1.6,0,0,0,1.83-1.61l1-7.35h7.12l1,7.35a1.61,1.61,0,0,0,1.84,1.61h2.35c.95,0,1.61-.59,1.39-1.91Zm-7.34,25.63,1.25-8.52,1.47-12.92h.44l1.47,12.92,1.24,8.52Zm40.46-25.63v37.68a1.46,1.46,0,0,1-1.61,1.61H479.4a1.43,1.43,0,0,1-1.61-1.61V78.94l.58-8.22h-.44L474.63,94a1.63,1.63,0,0,1-1.84,1.46h-3.38A1.55,1.55,0,0,1,467.65,94l-3.38-23.28h-.36l.51,8.22v22.33c0,1-.44,1.61-1.54,1.61h-2.06a1.46,1.46,0,0,1-1.61-1.61V63.59a1.41,1.41,0,0,1,1.61-1.54h4.77a1.43,1.43,0,0,1,1.55,1.4l2.57,15.42L471,88.78h.36l1.32-9.91,2.5-15.42c.15-1,.59-1.4,1.54-1.4h4.78A1.41,1.41,0,0,1,483.07,63.59Zm24.46,0v37.68a1.47,1.47,0,0,1-1.62,1.61h-3.08c-1,0-1.4-.44-1.69-1.39l-4.7-17.85-2.5-10.21h-.44L494.38,84v17.26a1.41,1.41,0,0,1-1.54,1.61h-2.28a1.46,1.46,0,0,1-1.61-1.61V63.59a1.41,1.41,0,0,1,1.61-1.54h3.09c1,0,1.39.44,1.69,1.4L500,81.22l2.49,10.28.44-.08-.88-10.5V63.59a1.36,1.36,0,0,1,1.54-1.54h2.28A1.42,1.42,0,0,1,507.53,63.59Zm24.23,0v37.68a1.41,1.41,0,0,1-1.54,1.61h-2.5a1.41,1.41,0,0,1-1.54-1.61V84.74h-7.13v16.53a1.46,1.46,0,0,1-1.61,1.61H515a1.47,1.47,0,0,1-1.62-1.61V63.59A1.42,1.42,0,0,1,515,62.05h2.42a1.41,1.41,0,0,1,1.61,1.54V80h7.13V63.59a1.36,1.36,0,0,1,1.54-1.54h2.5A1.36,1.36,0,0,1,531.76,63.59Z"/><path class="cls-1" d="M55.59,68.06l-5.71-2.28.39,1.61L45.5,66l-.77-3.23a2.15,2.15,0,0,1,2.89-2.5L58.8,64.71ZM37.81,73.17l4.9.49-1-2.38,8,2.3c1.35-1.1,2.6-2.24,3.8-3.39-4.78-1.37-10.48-3-14.81-4.28A2.15,2.15,0,0,0,36,68.78ZM22.93,95.28a12,12,0,0,0,.27-3.89l5.79-3a12.45,12.45,0,0,1,3.43-4.91l-1.64-.91a2.78,2.78,0,0,0-2.64,0l-7.65,4a2.74,2.74,0,0,0-.36-.23c-3.54-1.68-8.87.5-13.15,5.26-3.63,4-5.55,8.79-5.14,12.69a.7.7,0,0,0,1.22.38c2.15-2.41,8.31-8.68,11-8.68a.7.7,0,0,1,.58.22.77.77,0,0,1,.18.66c-.26,2.77-7.32,8.56-10,10.56a.69.69,0,0,0,.41,1.25C15.31,108.63,21.44,101.93,22.93,95.28ZM35,81.57a21.34,21.34,0,0,1,3.63-1.68A36.09,36.09,0,0,0,46.36,76l-10.79-.51a2.12,2.12,0,0,0-1.92,1,2.17,2.17,0,0,0-.09,2.16ZM98.7,95.9,95.47,81.24a2.09,2.09,0,0,0-1.84-1.64L80.1,78.28a33.48,33.48,0,0,0-.32-17.11,4.12,4.12,0,0,0,.5-5.07A14.79,14.79,0,0,0,81,51.73L81,47.42c0-3.7-1.12-6.88-2.81-8.22a7.82,7.82,0,0,0-3.58-5l-2.68-1.82c-2.56-1.72-5.43-2.06-7.06-1a5.78,5.78,0,0,0-5.06-1.78l-2.61.23c-2.32.21-4.19,1.44-4.8,3a4.15,4.15,0,0,0-.79,0,4.11,4.11,0,0,0-3.75,4.42,4.28,4.28,0,0,0,.25,1.07c-1.62,0-3.76.76-5.11,3.83a7.42,7.42,0,0,0,.64,7.18c3.92,6.35,15.87,8.37,16.37,8.41a.66.66,0,0,0,.67-.5.69.69,0,0,0-.39-.83s-4.88-2.2-4.89-6.22a8,8,0,0,0,1.31-2c1.34-3.07-.25-5.87-2.73-7.72a4.1,4.1,0,0,0,2-3.08,20.6,20.6,0,0,0,4.48-.15,7.25,7.25,0,0,0,3.59-1.38,9.06,9.06,0,0,0,3.15,3.54l2.68,1.81a10.08,10.08,0,0,0,2.59,1.25,15.07,15.07,0,0,0-.85,4.93l0,4.3a17,17,0,0,0,.13,2.29,5.48,5.48,0,0,0-1.66,2.26,5.87,5.87,0,0,0-.29,3.07c-8.3,3.67-14.43,17.62-30.24,23.28-5.95,2.13-7.69,5.43-8.32,7.92a4.56,4.56,0,0,0-.93,3.14,4.9,4.9,0,0,0,.54,1.91,7.51,7.51,0,0,0,0,3.51.69.69,0,0,0,.67.53.71.71,0,0,0,.7-.65,3.51,3.51,0,0,1,.49-1.65,3.34,3.34,0,0,0,1.25.2,2.74,2.74,0,0,0,1.7-.74c.35.2.72.4,1.12.6a3.73,3.73,0,0,0-.07,2.35,4.45,4.45,0,0,1-2.57,1,.71.71,0,0,0-.64.64A.69.69,0,0,0,34,102a10.16,10.16,0,0,0,2.22.25,6.07,6.07,0,0,0,2.93-.64,4.19,4.19,0,0,0,1,.1,5.88,5.88,0,0,0,2.61-.64,6.06,6.06,0,0,0,1.72-1.29c.68.11,1.37.19,2.1.26v8.85l-8.74,3c-2.86-3.24-8.68-5.09-14.09-5.09-4.29,0-8,1.12-10.43,3.15a.7.7,0,0,0,.35,1.23c3.36.47,12.41,2.21,14,4.53a.78.78,0,0,1,.15.68c-.19.76-1.52.92-2.61.92-4.64,0-12.86-2.93-12.94-3a.71.71,0,0,0-.79.22.71.71,0,0,0,0,.82c5.07,7.68,12,8.83,15.73,8.83,4.47,0,8.64-1.62,10.89-4.22a6.26,6.26,0,0,0,1.42-2.78l10.78-3.65a2.8,2.8,0,0,0,1.89-2.64V99.93a38,38,0,0,0,8.47-2.28l4.9,5.93-7,7.6a2.09,2.09,0,0,0,1.54,3.5,2.06,2.06,0,0,0,1.54-.67l8.23-8.94a2.11,2.11,0,0,0,.07-2.75l-5.34-6.46c.94-.48,1.88-1,2.82-1.6l9,7.21-6.08,12.68A2.09,2.09,0,1,0,74,116l6.79-14.17a2.1,2.1,0,0,0-.57-2.53l-9.34-7.5c.83-.67,1.63-1.39,2.4-2.15l12.54,4.84-2.31,15a2,2,0,0,0,2.07,2.41,2.08,2.08,0,0,0,2.06-1.78l2.56-16.7a2.08,2.08,0,0,0-1.31-2.27l-12.7-4.9a25.64,25.64,0,0,0,2.36-3.92l13.16,1.29L94.62,96.8a2.09,2.09,0,1,0,4.08-.9Z"/></svg>