<svg id="Layer_1" data-name="Layer 1" xmlns="http://www.w3.org/2000/svg" viewBox="0 0 144.14 140.2"><defs><style>.cls-1{fill:#fff;}</style></defs><title>logo-ko-icon</title><path class="cls-1" d="M79.93,57.3l-8.41-3.36.57,2.37-7-2.08-1.15-4.77a3.17,3.17,0,0,1,4.26-3.68l16.47,6.58ZM53.74,64.82l7.21.72L59.45,62l11.72,3.38c2-1.61,3.84-3.29,5.61-5-7-2-15.44-4.44-21.82-6.3a3.17,3.17,0,0,0-3.83,4.23ZM31.84,97.39a17.86,17.86,0,0,0,.38-5.73l8.53-4.47a18.47,18.47,0,0,1,5-7.24l-2.41-1.33a4.12,4.12,0,0,0-3.9-.05L28.24,84.48a6,6,0,0,0-.53-.34c-5.22-2.47-13.06.73-19.36,7.75C3,97.85.16,104.83.78,110.57a1,1,0,0,0,.71.87,1,1,0,0,0,1.08-.3c3.16-3.55,12.23-12.78,16.15-12.78a1.05,1.05,0,0,1,.86.32,1.15,1.15,0,0,1,.27,1c-.39,4.07-10.78,12.6-14.75,15.54a1,1,0,0,0-.36,1.15,1,1,0,0,0,1,.7C20.6,117,29.63,107.17,31.84,97.39Zm17.74-20.2a31.73,31.73,0,0,1,5.34-2.47,53.52,53.52,0,0,0,11.41-5.79l-15.89-.75a3.11,3.11,0,0,0-2.82,1.46,3.17,3.17,0,0,0-.13,3.18Zm93.82,21.1L138.65,76.7a3.08,3.08,0,0,0-2.71-2.4l-19.93-2c1.91-6.71,2-15.9-.46-25.18a6.1,6.1,0,0,0,.74-7.47,22.09,22.09,0,0,0,1-6.44l.08-6.34c.06-5.45-1.65-10.13-4.13-12.11-.34-2.5-2.23-5.34-5.28-7.4L104,4.73c-3.77-2.54-8-3-10.4-1.47C92.19,1.44,89.34.35,86.15.63L82.31,1c-3.42.31-6.17,2.12-7.07,4.38a5.59,5.59,0,0,0-1.16,0,6,6,0,0,0-5.52,6.5,5.52,5.52,0,0,0,.37,1.58c-2.39.06-5.54,1.12-7.54,5.65a11,11,0,0,0,1,10.57C68.11,39,85.7,41.94,86.45,42a1,1,0,0,0,1-.73A1,1,0,0,0,86.86,40c-.07,0-7.18-3.24-7.21-9.17a10.73,10.73,0,0,0,1.93-2.95c2-4.51-.36-8.64-4-11.37a6,6,0,0,0,3-4.53,30.35,30.35,0,0,0,6.59-.23,10.53,10.53,0,0,0,5.29-2A13.34,13.34,0,0,0,97.07,15l4,2.67a14.14,14.14,0,0,0,3.83,1.84,21.78,21.78,0,0,0-1.26,7.26l-.08,6.34a24.52,24.52,0,0,0,.2,3.37,8.14,8.14,0,0,0-2.46,3.33,8.65,8.65,0,0,0-.41,4.51C88.61,49.7,79.59,70.24,56.3,78.58c-8.76,3.14-11.31,8-12.25,11.65a6.67,6.67,0,0,0-1.36,4.63,7.11,7.11,0,0,0,.79,2.82,11.05,11.05,0,0,0,0,5.17,1,1,0,0,0,1,.78,1.06,1.06,0,0,0,1-1,5.29,5.29,0,0,1,.72-2.43,5.32,5.32,0,0,0,1.85.3,4.15,4.15,0,0,0,2.5-1.09c.51.29,1.06.58,1.65.88a5.43,5.43,0,0,0-.11,3.46,6.57,6.57,0,0,1-3.78,1.4,1,1,0,0,0-.18,2,15.27,15.27,0,0,0,3.28.37,8.91,8.91,0,0,0,4.3-1,6.46,6.46,0,0,0,1.4.14,8.67,8.67,0,0,0,3.85-.94,8.8,8.8,0,0,0,2.53-1.9c1,.16,2,.29,3.09.38v13l-12.87,4.36c-4.21-4.77-12.77-7.49-20.74-7.49-6.32,0-11.77,1.65-15.36,4.64a1,1,0,0,0-.33,1.06,1,1,0,0,0,.84.74c4.95.69,18.28,3.25,20.6,6.68a1.17,1.17,0,0,1,.23,1c-.28,1.13-2.24,1.36-3.84,1.36-6.85,0-18.95-4.32-19.07-4.36a1,1,0,0,0-1.2,1.53c7.47,11.31,17.71,13,23.16,13,6.58,0,12.72-2.38,16-6.22a9.21,9.21,0,0,0,2.09-4.08L72,124.18a4.11,4.11,0,0,0,2.79-3.89V104.23a54.68,54.68,0,0,0,12.46-3.37l7.23,8.74-10.3,11.19A3.08,3.08,0,0,0,88.72,125l12.11-13.17a3.07,3.07,0,0,0,.1-4l-7.86-9.51c1.39-.72,2.78-1.5,4.15-2.36l13.21,10.62-9,18.66a3.08,3.08,0,0,0,1.44,4.11,3.14,3.14,0,0,0,1.33.3,3.07,3.07,0,0,0,2.78-1.75L117,107a3.08,3.08,0,0,0-.84-3.73l-13.76-11Q104.26,90.7,106,89l18.47,7.13L121,118.3a3,3,0,0,0,3,3.55,3.07,3.07,0,0,0,3-2.61l3.77-24.6A3.07,3.07,0,0,0,129,91.3l-18.7-7.22a37.4,37.4,0,0,0,3.47-5.77l19.39,1.9,4.27,19.4a3.08,3.08,0,1,0,6-1.32Z"/></svg>