<?xml version="1.0" encoding="utf-8"?>
<!-- Generator: Adobe Illustrator 22.0.1, SVG Export Plug-In . SVG Version: 6.00 Build 0)  -->
<svg version="1.1" xmlns="http://www.w3.org/2000/svg" xmlns:xlink="http://www.w3.org/1999/xlink" x="0px" y="0px"
	 viewBox="0 0 534 156" style="enable-background:new 0 0 534 156;" xml:space="preserve">
<style type="text/css">
	.st0{display:none;}
	.st1{display:inline;}
	.st2{fill:#FFFFFF;}
	.st3{fill:none;stroke:#FFFFFF;stroke-width:1.1591;stroke-miterlimit:10;}
	.st4{fill:#6DCFF6;}
	.st5{fill:url(#SVGID_1_);}
	.st6{fill:#C9252C;}
	.st7{fill:none;stroke:#000000;stroke-width:1.1591;stroke-miterlimit:10;}
	.st8{fill:url(#SVGID_2_);}
</style>
<g id="background" class="st0">
	<rect x="-64.8" y="-40.9" class="st1" width="665" height="282.1"/>
</g>
<g id="Layer_1">
	<g>
		<line class="st3" x1="231.7" y1="75.7" x2="531.8" y2="75.7"/>
		<line class="st3" x1="169.9" y1="75.7" x2="185.8" y2="75.7"/>
	</g>
	<path class="st2" d="M183.8,7.3c-0.1-1-0.6-1.4-1.5-1.4h-5.8c-0.9,0-1.4,0.5-1.5,1.4l-6.7,43.5c-0.1,0.9,0.3,1.6,1.2,1.6h2.7
		c0.8,0,1.3-0.5,1.4-1.3l1.3-8.8h8.9l1.4,8.8c0.1,0.8,0.6,1.3,1.4,1.3h2.7c0.9,0,1.4-0.6,1.2-1.6L183.8,7.3z M175.5,37.8l2.2-15
		l1.5-12.5h0.3l1.5,12.5l2.2,15H175.5z M209.8,22.3v9.2c0,0.8-0.5,1.4-1.4,1.4h-2.2c-0.9,0-1.4-0.5-1.4-1.4v-7.3
		c0-2.7-0.8-3.6-2.9-3.6c-2.2,0-3.3,1.2-3.3,3.9v26.6c0,0.8-0.5,1.4-1.4,1.4h-2.1c-0.9,0-1.4-0.5-1.4-1.4V18c0-0.9,0.5-1.4,1.4-1.4
		h2.1c0.9,0,1.4,0.5,1.4,1.4v0.8c1.6-1.6,3.9-2.5,5.8-2.5C207.4,16.4,209.8,18.2,209.8,22.3z M221.7,16.4c-6.2,0-8,2.7-8,7.7v2.8
		c0,0.9,0.5,1.4,1.4,1.4h2.1c0.9,0,1.4-0.5,1.4-1.4v-2.8c0-2.8,1-3.6,3.1-3.6c2.2,0,3.2,0.8,3.2,3.6v8.3h-3.2c-6.2,0-8,2.7-8,7.7
		v6.8c0,4.1,2.4,5.9,5.3,5.9c2,0,4.2-0.9,5.9-2.5v0.8c0,0.8,0.5,1.4,1.4,1.4h2.2c0.9,0,1.4-0.5,1.4-1.4V24
		C229.7,19.1,227.9,16.4,221.7,16.4z M224.8,44.6c0,2.7-1.2,3.8-3.4,3.8c-2.1,0-2.8-0.8-2.8-3.6V40c0-2.7,1-3.6,3.1-3.6h3.2V44.6z
		 M250.9,24v5.1c0,0.9-0.5,1.4-1.4,1.4h-2.2c-0.9,0-1.4-0.5-1.4-1.4v-5c0-2.8-1-3.6-3.2-3.6c-2.1,0-3.1,0.8-3.1,3.6v21
		c0,2.7,1,3.6,3.1,3.6c2.2,0,3.2-0.9,3.2-3.6v-5c0-0.9,0.5-1.4,1.4-1.4h2.2c0.9,0,1.4,0.5,1.4,1.4v5.1c0,5-1.8,7.7-8,7.7
		c-6.2,0-8-2.7-8-7.7V24c0-5,1.8-7.7,8-7.7C249.1,16.4,250.9,19.1,250.9,24z M272.2,22.3v28.8c0,0.8-0.5,1.4-1.4,1.4h-2.2
		c-0.9,0-1.4-0.5-1.4-1.4V24.2c0-2.7-0.8-3.6-2.9-3.6c-2.2,0-3.3,1.2-3.3,3.9v26.6c0,0.8-0.5,1.4-1.4,1.4h-2.1
		c-0.9,0-1.4-0.5-1.4-1.4V2.3c0-0.9,0.5-1.4,1.4-1.4h2.1c0.9,0,1.4,0.5,1.4,1.4v16.5c1.6-1.6,3.9-2.5,5.8-2.5
		C269.7,16.4,272.2,18.2,272.2,22.3z M293.4,22.3v28.8c0,0.8-0.5,1.4-1.4,1.4h-2.2c-0.9,0-1.4-0.5-1.4-1.4V24.2
		c0-2.7-0.8-3.6-2.9-3.6c-2.2,0-3.3,1.2-3.3,3.9v26.6c0,0.8-0.5,1.4-1.4,1.4h-2.1c-0.9,0-1.4-0.5-1.4-1.4V18c0-0.9,0.5-1.4,1.4-1.4
		h2.1c0.9,0,1.4,0.5,1.4,1.4v0.8c1.6-1.6,3.9-2.5,5.9-2.5C290.9,16.4,293.4,18.2,293.4,22.3z M306.6,16.4c-6.2,0-8,2.7-8,7.7v21.1
		c0,5,1.8,7.7,8,7.7c6.2,0,8-2.7,8-7.7V24C314.6,19.1,312.8,16.4,306.6,16.4z M309.7,45c0,2.7-1,3.6-3.2,3.6c-2.1,0-3.1-0.9-3.1-3.6
		v-21c0-2.8,1-3.6,3.1-3.6c2.2,0,3.2,0.8,3.2,3.6V45z M324.7,2.3V51c0,0.9-0.5,1.4-1.4,1.4h-2.1c-0.9,0-1.4-0.5-1.4-1.4V2.3
		c0-0.9,0.5-1.4,1.4-1.4h2.1C324.2,1,324.7,1.4,324.7,2.3z M337.9,16.4c-6.2,0-8,2.7-8,7.7v21.1c0,5,1.8,7.7,8,7.7
		c6.2,0,8-2.7,8-7.7V24C345.9,19.1,344.1,16.4,337.9,16.4z M341,45c0,2.7-1,3.6-3.2,3.6c-2.1,0-3.1-0.9-3.1-3.6v-21
		c0-2.8,1-3.6,3.1-3.6c2.2,0,3.2,0.8,3.2,3.6V45z M365.8,16.7h-2.2c-0.9,0-1.4,0.5-1.4,1.4v0.8c-1.7-1.6-3.9-2.5-5.9-2.5
		c-2.8,0-5.3,1.8-5.3,5.9v24.6c0,4.1,2.4,5.9,5.3,5.9c2,0,4.2-0.9,5.9-2.5v6.7c0,2.7-0.8,4.2-3.8,4.2h-3.2c-0.9,0-1.4,0.5-1.4,1.4
		v1.4c0,0.9,0.5,1.4,1.4,1.4h3.2c6.8,0,8.7-3,8.7-8.3V18C367.1,17.1,366.7,16.7,365.8,16.7z M362.2,44.6c0,2.7-1.2,3.8-3.4,3.8
		c-2.1,0-2.8-0.8-2.8-3.6V24.2c0-2.7,0.7-3.6,2.8-3.6c2.2,0,3.4,1.2,3.4,3.9V44.6z M387.7,18.3l-6.9,45.6c-0.1,0.9-0.5,1.4-1.5,1.4
		h-2.1c-0.9,0-1.5-0.5-1.3-1.7l1.9-11.2h-1.1c-1,0-1.4-0.5-1.6-1.4l-5-32.7c-0.2-1.2,0.5-1.7,1.3-1.7h2.1c1,0,1.4,0.4,1.5,1.4
		l2.6,18.1l1.2,11.2h0.3l1.2-11.2l2.5-18.1c0.1-1,0.6-1.4,1.6-1.4h2.1C387.4,16.7,387.9,17.2,387.7,18.3z M413.8,18
		c-0.1-0.9-0.6-1.4-1.5-1.4h-4.6c-1,0-1.4,0.5-1.5,1.4L401,50.7c-0.2,1.2,0.5,1.7,1.3,1.7h2.1c1,0,1.5-0.5,1.6-1.4l0.8-6.4h6.2
		l0.9,6.4c0.1,1,0.6,1.4,1.6,1.4h2.1c0.8,0,1.4-0.5,1.2-1.7L413.8,18z M407.3,40.5l1.1-7.5l1.3-11.3h0.4l1.3,11.3l1.1,7.5H407.3z
		 M434.7,18v1.4c0,0.9-0.5,1.4-1.4,1.4h-5.1V51c0,0.9-0.5,1.4-1.4,1.4h-2.2c-0.9,0-1.4-0.5-1.4-1.4V20.8h-5.1
		c-0.9,0-1.4-0.5-1.4-1.4V18c0-0.9,0.5-1.4,1.4-1.4h15.2C434.2,16.7,434.7,17.1,434.7,18z M460.4,18c-0.1-0.9-0.6-1.4-1.5-1.4h-4.6
		c-1,0-1.4,0.5-1.5,1.4l-5.1,32.7c-0.2,1.2,0.5,1.7,1.3,1.7h2.1c1,0,1.5-0.5,1.6-1.4l0.8-6.4h6.2l0.9,6.4c0.1,1,0.6,1.4,1.6,1.4h2.1
		c0.8,0,1.4-0.5,1.2-1.7L460.4,18z M454,40.5L455,33l1.3-11.3h0.4L458,33l1.1,7.5H454z M489.4,18v33c0,0.9-0.5,1.4-1.4,1.4h-1.8
		c-1,0-1.4-0.5-1.4-1.4V31.5l0.5-7.2h-0.4L482,44.6c-0.1,0.8-0.6,1.3-1.6,1.3h-3c-1,0-1.4-0.5-1.5-1.3l-3-20.4h-0.3l0.5,7.2V51
		c0,0.9-0.4,1.4-1.4,1.4h-1.8c-0.9,0-1.4-0.5-1.4-1.4V18c0-0.9,0.5-1.4,1.4-1.4h4.2c0.8,0,1.2,0.4,1.4,1.2l2.3,13.5l1.1,8.7h0.3
		l1.2-8.7l2.2-13.5c0.1-0.8,0.5-1.2,1.4-1.2h4.2C488.9,16.7,489.4,17.1,489.4,18z M510.8,18v33c0,0.9-0.5,1.4-1.4,1.4h-2.7
		c-0.9,0-1.2-0.4-1.5-1.2l-4.1-15.6l-2.2-8.9h-0.4l0.8,9.3V51c0,0.9-0.5,1.4-1.4,1.4h-2c-0.9,0-1.4-0.5-1.4-1.4V18
		c0-0.9,0.5-1.4,1.4-1.4h2.7c0.8,0,1.2,0.4,1.5,1.2l4.1,15.6l2.2,9l0.4-0.1l-0.8-9.2V18c0-0.9,0.5-1.4,1.4-1.4h2
		C510.3,16.7,510.8,17.1,510.8,18z M532,18v33c0,0.9-0.5,1.4-1.4,1.4h-2.2c-0.9,0-1.4-0.5-1.4-1.4V36.5h-6.2V51
		c0,0.9-0.5,1.4-1.4,1.4h-2.1c-0.9,0-1.4-0.5-1.4-1.4V18c0-0.9,0.5-1.4,1.4-1.4h2.1c0.9,0,1.4,0.5,1.4,1.4v14.4h6.2V18
		c0-0.9,0.5-1.4,1.4-1.4h2.2C531.5,16.7,532,17.1,532,18z"/>
	<g>
		<path class="st4" d="M172.5,108.3c1.3,1.5,3.5,2.9,6.3,2.9c3.6,0,4.7-1.9,4.7-3.5c0-2.4-2.4-3.1-5.1-3.8c-3.2-0.8-6.8-1.7-6.8-5.7
			c0-3.3,3-5.6,6.9-5.6c3.1,0,5.5,1,7.1,2.8l-1.5,1.8c-1.5-1.7-3.6-2.4-5.8-2.4c-2.4,0-4.1,1.3-4.1,3.2c0,2,2.3,2.6,4.9,3.3
			c3.3,0.9,7,1.9,7,6.1c0,2.9-2,5.9-7.4,5.9c-3.5,0-6.1-1.3-7.7-3.2L172.5,108.3z"/>
		<path class="st4" d="M196.2,98.1c2.7,0,4.2,1.1,5.3,2.5L200,102c-1-1.3-2.2-1.9-3.7-1.9c-3.1,0-5,2.4-5,5.6s1.9,5.6,5,5.6
			c1.5,0,2.7-0.6,3.7-1.9l1.5,1.4c-1.1,1.4-2.7,2.5-5.3,2.5c-4.3,0-7.3-3.3-7.3-7.7C188.9,101.4,191.9,98.1,196.2,98.1z"/>
		<path class="st4" d="M203.9,105.8c0-4.2,2.8-7.6,7.2-7.6s7.2,3.4,7.2,7.6s-2.8,7.7-7.2,7.7S203.9,110,203.9,105.8z M215.9,105.8
			c0-3-1.7-5.6-4.8-5.6c-3.1,0-4.8,2.7-4.8,5.6c0,3,1.7,5.6,4.8,5.6C214.2,111.4,215.9,108.7,215.9,105.8z"/>
		<path class="st4" d="M221.9,98.5h2.3v2.3c1.2-1.5,2.9-2.7,4.8-2.7v2.3c-0.3-0.1-0.5-0.1-0.9-0.1c-1.4,0-3.3,1.1-3.9,2.3V113h-2.3
			V98.5z"/>
		<path class="st4" d="M231.9,118.6V98.5h2.3v2.2c1.1-1.5,2.9-2.5,4.9-2.5c3.8,0,6.5,2.9,6.5,7.6c0,4.7-2.7,7.7-6.5,7.7
			c-2,0-3.7-0.9-4.9-2.6v7.7H231.9z M238.5,100.1c-1.8,0-3.6,1.1-4.3,2.3v6.6c0.8,1.3,2.6,2.3,4.3,2.3c2.9,0,4.7-2.4,4.7-5.6
			S241.4,100.1,238.5,100.1z"/>
		<path class="st4" d="M248.8,94.5c0-0.8,0.7-1.5,1.5-1.5c0.8,0,1.5,0.7,1.5,1.5s-0.7,1.5-1.5,1.5C249.4,96.1,248.8,95.4,248.8,94.5
			z M249.1,98.5h2.3V113h-2.3V98.5z"/>
		<path class="st4" d="M255.1,105.8c0-4.2,2.8-7.6,7.2-7.6s7.2,3.4,7.2,7.6s-2.8,7.7-7.2,7.7S255.1,110,255.1,105.8z M267.1,105.8
			c0-3-1.7-5.6-4.8-5.6c-3.1,0-4.8,2.7-4.8,5.6c0,3,1.7,5.6,4.8,5.6C265.4,111.4,267.1,108.7,267.1,105.8z"/>
		<path class="st4" d="M283,103.5c0-2.6-1.3-3.4-3.3-3.4c-1.8,0-3.5,1.1-4.3,2.3V113h-2.3V98.5h2.3v2.1c1-1.2,3-2.5,5.2-2.5
			c3,0,4.6,1.5,4.6,4.7V113H283V103.5z"/>
		<path class="st4" d="M297.9,108.3c1.3,1.5,3.5,2.9,6.3,2.9c3.6,0,4.7-1.9,4.7-3.5c0-2.4-2.4-3.1-5.1-3.8c-3.2-0.8-6.8-1.7-6.8-5.7
			c0-3.3,3-5.6,6.9-5.6c3.1,0,5.5,1,7.1,2.8l-1.5,1.8c-1.5-1.7-3.6-2.4-5.8-2.4c-2.4,0-4.1,1.3-4.1,3.2c0,2,2.3,2.6,4.9,3.3
			c3.3,0.9,7,1.9,7,6.1c0,2.9-2,5.9-7.4,5.9c-3.5,0-6.1-1.3-7.7-3.2L297.9,108.3z"/>
		<path class="st4" d="M315.8,116.9c1,0,1.7-0.3,2.2-1.5l1-2.2l-6.1-14.7h2.4l4.8,11.9l4.8-11.9h2.5l-7.3,17.5
			c-0.9,2.1-2.3,2.9-4.3,3c-0.5,0-1.2-0.1-1.7-0.2l0.4-2C314.9,116.8,315.4,116.9,315.8,116.9z"/>
		<path class="st4" d="M329.6,109.5c1,1.1,2.8,2.1,4.8,2.1c2.2,0,3.4-1,3.4-2.4c0-1.6-1.8-2.1-3.7-2.6c-2.5-0.6-5.3-1.2-5.3-4.2
			c0-2.3,2-4.2,5.4-4.2c2.5,0,4.2,0.9,5.4,2.1l-1.1,1.6c-0.9-1.1-2.5-1.8-4.3-1.8c-2,0-3.2,0.9-3.2,2.2c0,1.4,1.7,1.9,3.6,2.3
			c2.5,0.6,5.5,1.3,5.5,4.5c0,2.4-2,4.4-5.7,4.4c-2.4,0-4.4-0.7-5.9-2.3L329.6,109.5z"/>
		<path class="st4" d="M344.2,110v-9.5h-2.4v-2h2.4v-4h2.3v4h3v2h-3v9c0,1.1,0.5,1.9,1.5,1.9c0.6,0,1.2-0.3,1.5-0.6l0.7,1.7
			c-0.6,0.5-1.4,0.9-2.7,0.9C345.3,113.4,344.2,112.2,344.2,110z"/>
		<path class="st4" d="M358.9,98.1c4.4,0,7,3.4,7,7.8v0.6h-11.8c0.2,2.7,2.1,5,5.2,5c1.7,0,3.3-0.7,4.5-1.8l1.1,1.5
			c-1.4,1.4-3.4,2.2-5.8,2.2c-4.3,0-7.4-3.1-7.4-7.7C351.7,101.5,354.8,98.1,358.9,98.1z M354.1,104.8h9.5c0-2.2-1.5-4.8-4.8-4.8
			C355.8,100,354.2,102.6,354.1,104.8z"/>
		<path class="st4" d="M387.1,103.2c0-1.8-0.8-3-2.7-3c-1.5,0-3.1,1.1-3.9,2.2V113h-2.3v-9.9c0-1.8-0.8-3-2.7-3
			c-1.5,0-3,1.1-3.8,2.3V113h-2.3V98.5h2.3v2.1c0.6-0.9,2.6-2.5,4.7-2.5c2.2,0,3.5,1.2,3.9,2.7c0.8-1.3,2.8-2.7,4.9-2.7
			c2.7,0,4.1,1.5,4.1,4.4V113h-2.3V103.2z"/>
		<path class="st4" d="M403,111.4c-1.2,1.3-2.9,2-4.8,2c-2.5,0-5.1-1.7-5.1-4.8c0-3.3,2.6-4.8,5.1-4.8c2,0,3.6,0.6,4.8,2v-2.6
			c0-2-1.6-3.1-3.7-3.1c-1.7,0-3.2,0.6-4.5,2l-1.1-1.6c1.6-1.6,3.4-2.4,5.8-2.4c3.1,0,5.6,1.4,5.6,4.9v10H403V111.4z M403,107.2
			c-0.9-1.2-2.4-1.8-4-1.8c-2.1,0-3.6,1.3-3.6,3.2c0,1.8,1.5,3.2,3.6,3.2c1.6,0,3.1-0.6,4-1.8V107.2z"/>
		<path class="st4" d="M410.2,110v-9.5h-2.4v-2h2.4v-4h2.3v4h3v2h-3v9c0,1.1,0.5,1.9,1.5,1.9c0.6,0,1.2-0.3,1.5-0.6l0.7,1.7
			c-0.6,0.5-1.4,0.9-2.7,0.9C411.3,113.4,410.2,112.2,410.2,110z"/>
		<path class="st4" d="M418.2,94.5c0-0.8,0.7-1.5,1.5-1.5c0.8,0,1.5,0.7,1.5,1.5s-0.7,1.5-1.5,1.5C418.9,96.1,418.2,95.4,418.2,94.5
			z M418.6,98.5h2.3V113h-2.3V98.5z"/>
		<path class="st4" d="M431.8,98.1c2.7,0,4.2,1.1,5.3,2.5l-1.5,1.4c-1-1.3-2.2-1.9-3.7-1.9c-3.1,0-5,2.4-5,5.6s1.9,5.6,5,5.6
			c1.5,0,2.7-0.6,3.7-1.9l1.5,1.4c-1.1,1.4-2.7,2.5-5.3,2.5c-4.3,0-7.3-3.3-7.3-7.7C424.5,101.4,427.4,98.1,431.8,98.1z"/>
		<path class="st4" d="M440.2,109.5c1,1.1,2.8,2.1,4.8,2.1c2.2,0,3.4-1,3.4-2.4c0-1.6-1.8-2.1-3.7-2.6c-2.5-0.6-5.3-1.2-5.3-4.2
			c0-2.3,2-4.2,5.4-4.2c2.5,0,4.2,0.9,5.4,2.1l-1.1,1.6c-0.9-1.1-2.5-1.8-4.3-1.8c-2,0-3.2,0.9-3.2,2.2c0,1.4,1.7,1.9,3.6,2.3
			c2.5,0.6,5.5,1.3,5.5,4.5c0,2.4-2,4.4-5.7,4.4c-2.4,0-4.4-0.7-5.9-2.3L440.2,109.5z"/>
		<path class="st4" d="M178.7,139.2h-4v8h-2.5v-20.1h8.1c3.7,0,6.3,2.3,6.3,6.1c0,3.6-2.5,5.6-5.2,5.8l5.4,8.2h-3L178.7,139.2z
			 M180,129.4h-5.3v7.7h5.3c2.4,0,4-1.6,4-3.9S182.4,129.4,180,129.4z"/>
		<path class="st4" d="M195.9,132.3c4.4,0,7,3.4,7,7.8v0.6h-11.8c0.2,2.7,2.1,5,5.2,5c1.7,0,3.3-0.7,4.5-1.8l1.1,1.5
			c-1.4,1.4-3.4,2.2-5.8,2.2c-4.3,0-7.4-3.1-7.4-7.7C188.7,135.7,191.7,132.3,195.9,132.3z M191.1,139h9.5c0-2.2-1.5-4.8-4.8-4.8
			C192.7,134.2,191.2,136.8,191.1,139z"/>
		<path class="st4" d="M206.4,143.7c1,1.1,2.8,2.1,4.8,2.1c2.2,0,3.4-1,3.4-2.4c0-1.6-1.8-2.1-3.7-2.6c-2.5-0.6-5.3-1.2-5.3-4.2
			c0-2.3,2-4.2,5.4-4.2c2.5,0,4.2,0.9,5.4,2.1l-1.1,1.6c-0.9-1.1-2.5-1.8-4.3-1.8c-2,0-3.2,0.9-3.2,2.2c0,1.4,1.7,1.9,3.6,2.3
			c2.5,0.6,5.5,1.3,5.5,4.5c0,2.4-2,4.4-5.7,4.4c-2.4,0-4.4-0.7-5.9-2.3L206.4,143.7z"/>
		<path class="st4" d="M226.8,132.3c4.4,0,7,3.4,7,7.8v0.6H222c0.2,2.7,2.1,5,5.2,5c1.7,0,3.3-0.7,4.5-1.8l1.1,1.5
			c-1.4,1.4-3.4,2.2-5.8,2.2c-4.3,0-7.4-3.1-7.4-7.7C219.7,135.7,222.7,132.3,226.8,132.3z M222,139h9.5c0-2.2-1.5-4.8-4.8-4.8
			C223.7,134.2,222.2,136.8,222,139z"/>
		<path class="st4" d="M246.6,145.6c-1.2,1.3-2.9,2-4.8,2c-2.5,0-5.1-1.7-5.1-4.8c0-3.3,2.6-4.8,5.1-4.8c2,0,3.6,0.6,4.8,2v-2.6
			c0-2-1.6-3.1-3.7-3.1c-1.7,0-3.2,0.6-4.5,2l-1.1-1.6c1.6-1.6,3.4-2.4,5.8-2.4c3.1,0,5.6,1.4,5.6,4.9v10h-2.3V145.6z M246.6,141.4
			c-0.9-1.2-2.4-1.8-4-1.8c-2.1,0-3.6,1.3-3.6,3.2c0,1.8,1.5,3.2,3.6,3.2c1.6,0,3.1-0.6,4-1.8V141.4z"/>
		<path class="st4" d="M253.3,132.7h2.3v2.3c1.2-1.5,2.9-2.7,4.8-2.7v2.3c-0.3-0.1-0.5-0.1-0.9-0.1c-1.4,0-3.3,1.1-3.9,2.3v10.3
			h-2.3V132.7z"/>
		<path class="st4" d="M269.7,132.3c2.7,0,4.2,1.1,5.3,2.5l-1.5,1.4c-1-1.3-2.2-1.9-3.7-1.9c-3.1,0-5,2.4-5,5.6s1.9,5.6,5,5.6
			c1.5,0,2.7-0.6,3.7-1.9l1.5,1.4c-1.1,1.4-2.7,2.5-5.3,2.5c-4.3,0-7.3-3.3-7.3-7.7C262.4,135.6,265.3,132.3,269.7,132.3z"/>
		<path class="st4" d="M288,137.6c0-2.6-1.3-3.3-3.3-3.3c-1.7,0-3.4,1.1-4.3,2.3v10.6h-2.3v-20.1h2.3v7.7c1-1.2,3-2.5,5.2-2.5
			c3,0,4.6,1.5,4.6,4.6v10.3H288V137.6z"/>
		<path class="st4" d="M312.2,126.8c3.6,0,6,1.6,7.8,3.8l-2,1.2c-1.3-1.6-3.4-2.8-5.8-2.8c-4.4,0-7.7,3.4-7.7,8.2
			c0,4.8,3.3,8.2,7.7,8.2c2.4,0,4.4-1.2,5.4-2.2v-4.1h-6.9v-2.2h9.4v7.3c-1.9,2.1-4.6,3.5-7.9,3.5c-5.7,0-10.3-4.2-10.3-10.4
			S306.5,126.8,312.2,126.8z"/>
		<path class="st4" d="M324,132.7h2.3v2.3c1.2-1.5,2.9-2.7,4.8-2.7v2.3c-0.3-0.1-0.5-0.1-0.9-0.1c-1.4,0-3.3,1.1-3.9,2.3v10.3H324
			V132.7z"/>
		<path class="st4" d="M333.1,139.9c0-4.2,2.8-7.6,7.2-7.6s7.2,3.4,7.2,7.6s-2.8,7.7-7.2,7.7S333.1,144.1,333.1,139.9z M345.1,139.9
			c0-3-1.7-5.6-4.8-5.6s-4.8,2.7-4.8,5.6c0,3,1.7,5.6,4.8,5.6S345.1,142.9,345.1,139.9z"/>
		<path class="st4" d="M361,145.2c-1.1,1.3-3,2.4-5.2,2.4c-3,0-4.6-1.5-4.6-4.6v-10.3h2.3v9.6c0,2.6,1.3,3.3,3.3,3.3
			c1.8,0,3.5-1,4.3-2.2v-10.7h2.3v14.5H361V145.2z"/>
		<path class="st4" d="M367.8,152.8v-20.1h2.3v2.2c1.1-1.5,2.9-2.5,4.9-2.5c3.8,0,6.5,2.9,6.5,7.6c0,4.7-2.7,7.7-6.5,7.7
			c-2,0-3.7-0.9-4.9-2.6v7.7H367.8z M374.4,134.3c-1.8,0-3.6,1.1-4.3,2.3v6.6c0.8,1.3,2.6,2.3,4.3,2.3c2.9,0,4.7-2.4,4.7-5.6
			S377.3,134.3,374.4,134.3z"/>
	</g>
	<g>
		<path class="st4" d="M192.4,70.5H188v-1.8h10.9v1.8h-4.5V83h-2V70.5z"/>
		<path class="st4" d="M212.1,76.5h-8.6V83h-2V68.7h2v6.1h8.6v-6.1h2V83h-2V76.5z"/>
		<path class="st4" d="M218,68.7h9.9v1.8h-7.9v4.3h7.8v1.8h-7.8v4.6h7.9V83H218V68.7z"/>
	</g>
	<g>
		<radialGradient id="SVGID_1_" cx="73.1771" cy="76.8363" r="70.5182" gradientUnits="userSpaceOnUse">
			<stop  offset="0" style="stop-color:#6DCFF6"/>
			<stop  offset="0.5246" style="stop-color:#55B9DE"/>
			<stop  offset="1" style="stop-color:#39A8CD"/>
		</radialGradient>
		<path class="st5" d="M81,63.9l-8.4-3.4l0.6,2.4l-7-2.1L65,56.1c-0.3-1.2,0.1-2.4,1-3.1c0.9-0.8,2.2-1,3.3-0.5L85.7,59L81,63.9z
			 M54.8,71.4l7.2,0.7l-1.5-3.5C65.1,70,69,71.1,72.3,72c2-1.6,3.8-3.3,5.6-5c-7-2-15.4-4.4-21.8-6.3c-1.2-0.3-2.4,0-3.2,0.9
			c-0.8,0.9-1,2.2-0.6,3.3L54.8,71.4z M32.9,104c0.5-2.1,0.6-4,0.4-5.7l8.5-4.5c1.1-2.8,2.8-5.2,5-7.2l-2.4-1.3
			c-1.2-0.7-2.7-0.7-3.9,0l-11.3,5.9c-0.2-0.1-0.3-0.2-0.5-0.3c-5.2-2.5-13.1,0.7-19.4,7.7c-5.4,6-8.2,12.9-7.6,18.7
			c0,0.4,0.3,0.7,0.7,0.9c0.4,0.1,0.8,0,1.1-0.3c3.2-3.6,12.2-12.8,16.2-12.8c0.5,0,0.7,0.2,0.9,0.3c0.1,0.2,0.3,0.4,0.3,1
			c-0.4,4.1-10.8,12.6-14.7,15.5c-0.4,0.3-0.5,0.7-0.4,1.1c0.1,0.4,0.5,0.7,1,0.7C21.7,123.7,30.7,113.8,32.9,104z M50.7,83.8
			c1.6-0.9,3.4-1.8,5.3-2.5c4.3-1.5,8-3.5,11.4-5.8l-15.9-0.7c-1.1-0.1-2.2,0.5-2.8,1.5c-0.6,1-0.7,2.2-0.1,3.2L50.7,83.8z
			 M144.5,104.9l-4.8-21.6c-0.3-1.3-1.4-2.3-2.7-2.4l-19.9-2c1.9-6.7,2-15.9-0.5-25.2c0,0,3.2-3,0.7-7.5c0.6-1.9,1-4.1,1-6.4
			l0.1-6.3c0.1-5.4-1.6-10.1-4.1-12.1c-0.3-2.5-2.2-5.3-5.3-7.4l-3.9-2.7c-3.8-2.5-8-3-10.4-1.5c-1.4-1.8-4.3-2.9-7.5-2.6l-3.8,0.3
			C80,7.9,77.2,9.7,76.3,12c-0.4,0-0.8-0.1-1.2,0c-3.3,0.3-5.8,3.2-5.5,6.5c0,0.6,0.2,1.1,0.4,1.6c-2.4,0.1-5.5,1.1-7.5,5.7
			c-1.5,3.5-1.2,7.4,0.9,10.6c5.8,9.3,23.4,12.3,24.1,12.4c0.4,0,0.9-0.3,1-0.7c0.1-0.5-0.1-1-0.6-1.2c-0.1,0-7.2-3.2-7.2-9.2
			c0.8-0.9,1.5-1.9,1.9-3c2-4.5-0.4-8.6-4-11.4c1.6-0.9,2.8-2.6,3-4.5c0,0,2.7,0.3,6.6-0.2c2.1-0.3,4-1,5.3-2
			c0.9,1.9,2.5,3.7,4.6,5.2l3.9,2.7c1.3,0.8,2.6,1.4,3.8,1.8c-0.8,2.1-1.2,4.6-1.3,7.3l-0.1,6.3c0,1.2,0.1,2.3,0.2,3.4
			c-1.1,0.9-1.9,2-2.5,3.3c-0.5,1.3-0.7,3-0.4,4.5c-12.2,5.4-21.2,25.9-44.5,34.3c-8.8,3.1-11.3,8-12.2,11.7
			c-0.9,1.2-1.5,2.8-1.4,4.6c0.1,1,0.3,2,0.8,2.8c-0.7,2.4-0.1,5,0,5.2c0.1,0.5,0.5,0.8,1,0.8c0.6-0.1,1-0.5,1-1
			c0.1-0.9,0.3-1.7,0.7-2.4c0.5,0.2,1.3,0.3,1.8,0.3c0.9,0,1.8-0.5,2.5-1.1c0.5,0.3,1.1,0.6,1.7,0.9c-0.4,1.1-0.5,2.5-0.1,3.5
			c-0.8,0.6-2,1.3-3.8,1.4c-0.5,0-0.9,0.4-1,0.9s0.3,1,0.8,1.1c0.1,0,1.5,0.4,3.3,0.4c1.7,0,3.2-0.3,4.3-0.9
			c0.4,0.1,0.9,0.1,1.4,0.1c1.3,0,2.6-0.3,3.8-0.9c1-0.5,1.8-1.2,2.5-1.9c1,0.2,2,0.3,3.1,0.4v13l-12.9,4.4
			c-4.2-4.8-12.8-7.5-20.7-7.5c-6.3,0-11.8,1.6-15.4,4.6c-0.3,0.3-0.4,0.7-0.3,1.1c0.1,0.4,0.4,0.7,0.8,0.7
			c4.9,0.7,18.3,3.3,20.6,6.7c0.3,0.5,0.3,0.8,0.2,1c-0.3,1.1-2.2,1.4-3.8,1.4c-6.8,0-18.9-4.3-19.1-4.4c-0.4-0.1-0.9,0-1.2,0.3
			c-0.3,0.3-0.3,0.8,0,1.2c7.5,11.3,17.7,13,23.2,13c6.6,0,12.7-2.4,16-6.2c1.1-1.3,1.8-2.7,2.1-4.1l15.9-5.4
			c1.7-0.6,2.8-2.1,2.8-3.9v-16.1c3.4-0.5,7.8-1.5,12.5-3.4l7.2,8.7l-10.3,11.2c-1.2,1.3-1.1,3.2,0.2,4.4c0.6,0.5,1.3,0.8,2.1,0.8
			c0.8,0,1.7-0.3,2.3-1l12.1-13.2c1-1.1,1.1-2.9,0.1-4l-7.9-9.5c1.4-0.7,2.8-1.5,4.2-2.4l13.2,10.6l-8.9,18.7
			c-0.7,1.5-0.1,3.4,1.4,4.1c0.4,0.2,0.9,0.3,1.3,0.3c1.1,0,2.2-0.6,2.8-1.7l10-20.9c0.6-1.3,0.3-2.8-0.8-3.7l-13.8-11
			c1.2-1,2.4-2,3.5-3.2l18.5,7.1l-3.4,22.2c-0.3,1.7,0.8,3.5,3,3.5c1.5,0,2.8-1.1,3-2.6l3.8-24.6c0.2-1.4-0.6-2.8-1.9-3.3l-18.7-7.2
			c1.3-1.8,2.5-3.7,3.5-5.8l19.4,1.9l4.3,19.4c0.3,1.4,1.8,2.8,3.7,2.3C143.8,108.2,144.9,106.6,144.5,104.9z"/>
		<g>
			<path class="st6" d="M88.5,47.9c0.1-0.5-0.1-1-0.6-1.2c0,0-1.8-0.8-3.5-2.3c-0.5,0.4-0.8,0.9-1,1.5c-0.2,0.7-0.1,1.3,0.1,1.9
				c2.3,0.6,3.8,0.8,4,0.8C88,48.7,88.4,48.3,88.5,47.9z"/>
		</g>
	</g>
</g>
</svg>
